<svg xmlns="http://www.w3.org/2000/svg" xmlns:xlink="http://www.w3.org/1999/xlink" width="500" zoomAndPan="magnify" viewBox="0 0 375 374.999991" height="500" preserveAspectRatio="xMidYMid meet" version="1.0"><defs><clipPath id="00d669e23c"><path d="M 37.5 37.5 L 337.5 37.5 L 337.5 337.5 L 37.5 337.5 Z M 37.5 37.5 " clip-rule="nonzero"/></clipPath><clipPath id="7234502791"><path d="M 187.5 337.5 C 147.453125 337.5 109.742188 321.914062 81.445312 293.554688 C 53.085938 265.257812 37.5 227.546875 37.5 187.5 C 37.5 147.453125 53.085938 109.742188 81.445312 81.445312 C 109.742188 53.085938 147.453125 37.5 187.5 37.5 C 227.546875 37.5 265.257812 53.085938 293.554688 81.445312 C 321.914062 109.800781 337.5 147.453125 337.5 187.5 C 337.5 227.546875 321.914062 265.257812 293.554688 293.554688 C 265.257812 321.914062 227.546875 337.5 187.5 337.5 Z M 187.5 46.492188 C 149.851562 46.492188 114.417969 61.179688 87.800781 87.800781 C 61.179688 114.417969 46.492188 149.851562 46.492188 187.5 C 46.492188 225.148438 61.179688 260.582031 87.800781 287.199219 C 114.417969 313.820312 149.851562 328.507812 187.5 328.507812 C 225.148438 328.507812 260.582031 313.820312 287.199219 287.199219 C 313.820312 260.582031 328.507812 225.148438 328.507812 187.5 C 328.507812 149.851562 313.820312 114.417969 287.199219 87.800781 C 260.582031 61.179688 225.148438 46.492188 187.5 46.492188 Z M 187.5 46.492188 " clip-rule="nonzero"/></clipPath><clipPath id="c848f458ea"><path d="M 114 112.5 L 261 112.5 L 261 262.5 L 114 262.5 Z M 114 112.5 " clip-rule="nonzero"/></clipPath></defs><g clip-path="url(#00d669e23c)"><g clip-path="url(#7234502791)"><path fill="#171100" d="M 37.5 37.5 L 337.5 37.5 L 337.5 337.5 L 37.5 337.5 Z M 37.5 37.5 " fill-opacity="1" fill-rule="nonzero"/></g></g><g clip-path="url(#c848f458ea)"><path fill="#000000" d="M 207.902344 112.5 L 243.460938 112.5 C 248.195312 112.5 252.492188 114.433594 255.609375 117.554688 C 258.730469 120.671875 260.660156 124.980469 260.660156 129.722656 L 260.660156 165.328125 C 260.660156 170.066406 258.730469 174.371094 255.609375 177.492188 C 252.5 180.617188 248.195312 182.550781 243.460938 182.550781 L 207.902344 182.550781 C 203.167969 182.550781 198.867188 180.617188 195.75 177.492188 C 192.640625 174.378906 190.699219 170.066406 190.699219 165.328125 L 190.699219 129.722656 C 190.699219 124.980469 192.632812 120.679688 195.75 117.554688 C 198.867188 114.433594 203.167969 112.5 207.902344 112.5 Z M 245.757812 231.894531 L 199.386719 231.894531 C 196.964844 231.894531 195 229.925781 195 227.5 C 195 225.074219 196.964844 223.105469 199.386719 223.105469 L 245.757812 223.105469 L 226.035156 203.167969 C 224.328125 201.453125 224.335938 198.675781 226.050781 196.972656 C 227.761719 195.265625 230.539062 195.277344 232.238281 196.988281 L 259.367188 224.40625 C 261.066406 226.113281 261.0625 228.878906 259.367188 230.585938 L 232.238281 258.007812 C 230.53125 259.722656 227.761719 259.730469 226.050781 258.019531 C 224.335938 256.3125 224.328125 253.539062 226.035156 251.824219 Z M 131.308594 192.480469 L 166.871094 192.480469 C 171.605469 192.480469 175.902344 194.414062 179.019531 197.535156 C 182.132812 200.652344 184.070312 204.960938 184.070312 209.699219 L 184.070312 245.304688 C 184.070312 250.046875 182.140625 254.347656 179.019531 257.472656 C 175.902344 260.59375 171.605469 262.527344 166.871094 262.527344 L 131.308594 262.527344 C 126.578125 262.527344 122.277344 260.59375 119.160156 257.472656 C 116.042969 254.355469 114.109375 250.046875 114.109375 245.304688 L 114.109375 209.699219 C 114.109375 204.960938 116.042969 200.65625 119.160156 197.535156 C 122.269531 194.414062 126.578125 192.480469 131.308594 192.480469 Z M 129.011719 143.125 L 175.382812 143.125 C 177.804688 143.125 179.773438 145.09375 179.773438 147.519531 C 179.773438 149.945312 177.804688 151.917969 175.382812 151.917969 L 129.011719 151.917969 L 148.734375 171.847656 C 150.441406 173.5625 150.433594 176.339844 148.722656 178.042969 C 147.007812 179.75 144.234375 179.734375 142.535156 178.027344 L 115.402344 150.609375 C 113.710938 148.898438 113.703125 146.144531 115.402344 144.425781 L 142.535156 117.007812 C 144.238281 115.292969 147.007812 115.285156 148.722656 116.992188 C 150.433594 118.703125 150.441406 121.472656 148.734375 123.1875 Z M 129.011719 143.125 " fill-opacity="1" fill-rule="evenodd"/></g></svg>