<svg xmlns="http://www.w3.org/2000/svg" xmlns:xlink="http://www.w3.org/1999/xlink" width="500" zoomAndPan="magnify" viewBox="0 0 375 374.999991" height="500" preserveAspectRatio="xMidYMid meet" version="1.0"><defs><clipPath id="c3ac81e246"><path d="M 37.5 37.5 L 337.5 37.5 L 337.5 337.5 L 37.5 337.5 Z M 37.5 37.5 " clip-rule="nonzero"/></clipPath><clipPath id="0db4c6f186"><path d="M 187.5 337.5 C 147.453125 337.5 109.742188 321.914062 81.445312 293.554688 C 53.085938 265.257812 37.5 227.546875 37.5 187.5 C 37.5 147.453125 53.085938 109.742188 81.445312 81.445312 C 109.742188 53.085938 147.453125 37.5 187.5 37.5 C 227.546875 37.5 265.257812 53.085938 293.554688 81.445312 C 321.914062 109.800781 337.5 147.453125 337.5 187.5 C 337.5 227.546875 321.914062 265.257812 293.554688 293.554688 C 265.257812 321.914062 227.546875 337.5 187.5 337.5 Z M 187.5 46.492188 C 149.851562 46.492188 114.417969 61.179688 87.800781 87.800781 C 61.179688 114.417969 46.492188 149.851562 46.492188 187.5 C 46.492188 225.148438 61.179688 260.582031 87.800781 287.199219 C 114.417969 313.820312 149.851562 328.507812 187.5 328.507812 C 225.148438 328.507812 260.582031 313.820312 287.199219 287.199219 C 313.820312 260.582031 328.507812 225.148438 328.507812 187.5 C 328.507812 149.851562 313.820312 114.417969 287.199219 87.800781 C 260.582031 61.179688 225.148438 46.492188 187.5 46.492188 Z M 187.5 46.492188 " clip-rule="nonzero"/></clipPath><clipPath id="01692398f4"><path d="M 114 112.5 L 261 112.5 L 261 262.5 L 114 262.5 Z M 114 112.5 " clip-rule="nonzero"/></clipPath></defs><rect x="-37.5" width="450" fill="#ffffff" y="-37.499999" height="449.999989" fill-opacity="1"/><g clip-path="url(#c3ac81e246)"><g clip-path="url(#0db4c6f186)"><path fill="#00d1b2" d="M 37.5 37.5 L 337.5 37.5 L 337.5 337.5 L 37.5 337.5 Z M 37.5 37.5 " fill-opacity="1" fill-rule="nonzero"/></g></g><g clip-path="url(#01692398f4)"><path fill="#00d1b2" d="M 208.019531 112.5 L 243.625 112.5 C 248.363281 112.5 252.667969 114.433594 255.792969 117.554688 C 258.914062 120.671875 260.847656 124.980469 260.847656 129.722656 L 260.847656 165.328125 C 260.847656 170.066406 258.914062 174.371094 255.792969 177.492188 C 252.675781 180.617188 248.363281 182.550781 243.625 182.550781 L 208.019531 182.550781 C 203.28125 182.550781 198.976562 180.617188 195.855469 177.492188 C 192.738281 174.378906 190.796875 170.066406 190.796875 165.328125 L 190.796875 129.722656 C 190.796875 124.980469 192.730469 120.679688 195.855469 117.554688 C 198.976562 114.433594 203.28125 112.5 208.019531 112.5 Z M 245.925781 231.894531 L 199.496094 231.894531 C 197.070312 231.894531 195.101562 229.925781 195.101562 227.5 C 195.101562 225.074219 197.070312 223.105469 199.496094 223.105469 L 245.925781 223.105469 L 226.179688 203.167969 C 224.46875 201.453125 224.476562 198.675781 226.191406 196.972656 C 227.90625 195.265625 230.6875 195.277344 232.386719 196.988281 L 259.554688 224.40625 C 261.253906 226.113281 261.25 228.878906 259.554688 230.585938 L 232.386719 258.007812 C 230.679688 259.722656 227.90625 259.730469 226.191406 258.019531 C 224.476562 256.3125 224.46875 253.539062 226.179688 251.824219 Z M 131.332031 192.480469 L 166.9375 192.480469 C 171.675781 192.480469 175.980469 194.414062 179.101562 197.535156 C 182.21875 200.652344 184.160156 204.960938 184.160156 209.699219 L 184.160156 245.304688 C 184.160156 250.046875 182.226562 254.347656 179.101562 257.472656 C 175.980469 260.59375 171.675781 262.527344 166.9375 262.527344 L 131.332031 262.527344 C 126.59375 262.527344 122.289062 260.59375 119.167969 257.472656 C 116.042969 254.355469 114.109375 250.046875 114.109375 245.304688 L 114.109375 209.699219 C 114.109375 204.960938 116.042969 200.65625 119.167969 197.535156 C 122.28125 194.414062 126.59375 192.480469 131.332031 192.480469 Z M 129.03125 143.125 L 175.460938 143.125 C 177.886719 143.125 179.855469 145.09375 179.855469 147.519531 C 179.855469 149.945312 177.886719 151.917969 175.460938 151.917969 L 129.03125 151.917969 L 148.78125 171.847656 C 150.488281 173.5625 150.480469 176.339844 148.765625 178.042969 C 147.050781 179.75 144.273438 179.734375 142.570312 178.027344 L 115.40625 150.609375 C 113.710938 148.898438 113.703125 146.144531 115.40625 144.425781 L 142.570312 117.007812 C 144.277344 115.292969 147.050781 115.285156 148.765625 116.992188 C 150.480469 118.703125 150.488281 121.472656 148.78125 123.1875 Z M 129.03125 143.125 " fill-opacity="1" fill-rule="evenodd"/></g></svg>