<svg xmlns="http://www.w3.org/2000/svg" xmlns:xlink="http://www.w3.org/1999/xlink" width="500" zoomAndPan="magnify" viewBox="0 0 375 374.999991" height="500" preserveAspectRatio="xMidYMid meet" version="1.0"><defs><g/><clipPath id="c8871cf196"><path d="M 37.5 37.5 L 337.5 37.5 L 337.5 337.5 L 37.5 337.5 Z M 37.5 37.5 " clip-rule="nonzero"/></clipPath><clipPath id="d6292aace4"><path d="M 187.5 337.5 C 147.453125 337.5 109.742188 321.914062 81.445312 293.554688 C 53.085938 265.257812 37.5 227.546875 37.5 187.5 C 37.5 147.453125 53.085938 109.742188 81.445312 81.445312 C 109.742188 53.085938 147.453125 37.5 187.5 37.5 C 227.546875 37.5 265.257812 53.085938 293.554688 81.445312 C 321.914062 109.800781 337.5 147.453125 337.5 187.5 C 337.5 227.546875 321.914062 265.257812 293.554688 293.554688 C 265.257812 321.914062 227.546875 337.5 187.5 337.5 Z M 187.5 46.492188 C 149.851562 46.492188 114.417969 61.179688 87.800781 87.800781 C 61.179688 114.417969 46.492188 149.851562 46.492188 187.5 C 46.492188 225.148438 61.179688 260.582031 87.800781 287.199219 C 114.417969 313.820312 149.851562 328.507812 187.5 328.507812 C 225.148438 328.507812 260.582031 313.820312 287.199219 287.199219 C 313.820312 260.582031 328.507812 225.148438 328.507812 187.5 C 328.507812 149.851562 313.820312 114.417969 287.199219 87.800781 C 260.582031 61.179688 225.148438 46.492188 187.5 46.492188 Z M 187.5 46.492188 " clip-rule="nonzero"/></clipPath><clipPath id="07484e9713"><path d="M 143.386719 101.011719 L 231.886719 101.011719 L 231.886719 164.761719 L 143.386719 164.761719 Z M 143.386719 101.011719 " clip-rule="nonzero"/></clipPath></defs><rect x="-37.5" width="450" fill="#ffffff" y="-37.499999" height="449.999989" fill-opacity="1"/><g clip-path="url(#c8871cf196)"><g clip-path="url(#d6292aace4)"><path fill="#000000" d="M 37.5 37.5 L 337.5 37.5 L 337.5 337.5 L 37.5 337.5 Z M 37.5 37.5 " fill-opacity="1" fill-rule="nonzero"/></g></g><g clip-path="url(#07484e9713)"><path fill="#000000" d="M 224.234375 101.011719 L 151.039062 101.011719 C 146.828125 101.011719 143.414062 104.414062 143.414062 108.601562 L 143.414062 157.171875 C 143.414062 161.363281 146.828125 164.761719 151.039062 164.761719 L 224.234375 164.761719 C 228.445312 164.761719 231.859375 161.363281 231.859375 157.171875 L 231.859375 108.601562 C 231.859375 104.414062 228.445312 101.011719 224.234375 101.011719 Z M 203.296875 129.882812 L 228.292969 106.523438 C 228.613281 107.160156 228.808594 107.859375 228.808594 108.601562 L 228.808594 157.171875 C 228.808594 157.75 228.6875 158.296875 228.488281 158.8125 Z M 224.234375 104.046875 C 224.890625 104.046875 225.515625 104.183594 226.066406 104.441406 L 187.636719 140.355469 L 149.207031 104.441406 C 149.757812 104.183594 150.382812 104.046875 151.039062 104.046875 Z M 146.785156 158.8125 C 146.585938 158.296875 146.464844 157.75 146.464844 157.171875 L 146.464844 108.601562 C 146.464844 107.859375 146.660156 107.160156 146.980469 106.539062 L 171.976562 129.898438 Z M 151.039062 161.726562 C 150.214844 161.726562 149.46875 161.5 148.796875 161.121094 L 174.203125 131.960938 L 186.585938 143.542969 C 186.875 143.816406 187.253906 143.953125 187.621094 143.953125 C 187.988281 143.953125 188.367188 143.816406 188.660156 143.542969 L 201.039062 131.960938 L 226.476562 161.121094 C 225.804688 161.5 225.058594 161.726562 224.234375 161.726562 Z M 151.039062 161.726562 " fill-opacity="1" fill-rule="nonzero"/></g><g fill="#000000" fill-opacity="1"><g transform="translate(147.359483, 209.335899)"><g><path d="M 24.328125 0 L 19.78125 0 L 19.75 -13.1875 L 14.875 -2.03125 L 11.515625 -2.03125 L 6.640625 -13.1875 L 6.640625 0 L 2.03125 0 L 2.03125 -20.328125 L 7.6875 -20.328125 L 13.1875 -8.234375 L 18.703125 -20.328125 L 24.328125 -20.328125 Z M 24.328125 0 "/></g></g></g><g fill="#000000" fill-opacity="1"><g transform="translate(175.772361, 209.335899)"><g><path d="M 15.515625 -3.734375 L 6.640625 -3.734375 L 5.15625 0 L -0.140625 0 L 8.609375 -20.296875 L 13.921875 -20.296875 L 22.46875 0 L 16.96875 0 Z M 14 -7.65625 L 11.109375 -15.171875 L 8.15625 -7.65625 Z M 14 -7.65625 "/></g></g></g><g fill="#000000" fill-opacity="1"><g transform="translate(200.126339, 209.335899)"><g><path d="M 7.1875 0 L 2.03125 0 L 2.03125 -20.296875 L 7.1875 -20.296875 Z M 7.1875 0 "/></g></g></g><g fill="#000000" fill-opacity="1"><g transform="translate(211.375852, 209.335899)"><g><path d="M 7.1875 -4.328125 L 15.8125 -4.328125 L 15.8125 0 L 2.03125 0 L 2.03125 -20.296875 L 7.1875 -20.296875 Z M 7.1875 -4.328125 "/></g></g></g><g fill="#000000" fill-opacity="1"><g transform="translate(86.316518, 243.085897)"><g><path d="M 11.546875 -20.46875 C 13.046875 -20.46875 14.523438 -20.160156 15.984375 -19.546875 C 17.453125 -18.929688 18.695312 -18.097656 19.71875 -17.046875 L 16.734375 -13.515625 C 16.078125 -14.328125 15.285156 -14.96875 14.359375 -15.4375 C 13.441406 -15.914062 12.53125 -16.15625 11.625 -16.15625 C 10.019531 -16.15625 8.675781 -15.585938 7.59375 -14.453125 C 6.507812 -13.328125 5.96875 -11.929688 5.96875 -10.265625 C 5.96875 -8.566406 6.507812 -7.144531 7.59375 -6 C 8.675781 -4.863281 10.019531 -4.296875 11.625 -4.296875 C 12.476562 -4.296875 13.363281 -4.503906 14.28125 -4.921875 C 15.195312 -5.347656 16.015625 -5.929688 16.734375 -6.671875 L 19.75 -3.484375 C 18.644531 -2.359375 17.34375 -1.457031 15.84375 -0.78125 C 14.34375 -0.101562 12.851562 0.234375 11.375 0.234375 C 8.3125 0.234375 5.765625 -0.757812 3.734375 -2.75 C 1.710938 -4.738281 0.703125 -7.222656 0.703125 -10.203125 C 0.703125 -13.128906 1.734375 -15.570312 3.796875 -17.53125 C 5.867188 -19.488281 8.453125 -20.46875 11.546875 -20.46875 Z M 11.546875 -20.46875 "/></g></g></g><g fill="#000000" fill-opacity="1"><g transform="translate(108.40911, 243.085897)"><g><path d="M 11.65625 -20.46875 C 14.8125 -20.46875 17.429688 -19.488281 19.515625 -17.53125 C 21.609375 -15.570312 22.65625 -13.117188 22.65625 -10.171875 C 22.65625 -7.210938 21.601562 -4.738281 19.5 -2.75 C 17.40625 -0.757812 14.789062 0.234375 11.65625 0.234375 C 8.519531 0.234375 5.910156 -0.753906 3.828125 -2.734375 C 1.742188 -4.722656 0.703125 -7.203125 0.703125 -10.171875 C 0.703125 -13.128906 1.742188 -15.582031 3.828125 -17.53125 C 5.910156 -19.488281 8.519531 -20.46875 11.65625 -20.46875 Z M 11.71875 -16.15625 C 10.132812 -16.15625 8.78125 -15.578125 7.65625 -14.421875 C 6.53125 -13.273438 5.96875 -11.847656 5.96875 -10.140625 C 5.96875 -8.441406 6.53125 -7.007812 7.65625 -5.84375 C 8.789062 -4.675781 10.140625 -4.09375 11.703125 -4.09375 C 13.273438 -4.09375 14.609375 -4.675781 15.703125 -5.84375 C 16.796875 -7.007812 17.34375 -8.441406 17.34375 -10.140625 C 17.34375 -11.847656 16.796875 -13.273438 15.703125 -14.421875 C 14.609375 -15.578125 13.28125 -16.15625 11.71875 -16.15625 Z M 11.71875 -16.15625 "/></g></g></g><g fill="#000000" fill-opacity="1"><g transform="translate(133.777814, 243.085897)"><g><path d="M 20.765625 0 L 16.21875 0 L 6.875 -12.5 L 6.875 0 L 2.03125 0 L 2.03125 -20.296875 L 6.578125 -20.296875 L 15.953125 -7.765625 L 15.953125 -20.296875 L 20.765625 -20.296875 Z M 20.765625 0 "/></g></g></g><g fill="#000000" fill-opacity="1"><g transform="translate(158.59567, 243.085897)"><g><path d="M 13.1875 0 L 7.859375 0 L -0.03125 -20.296875 L 5.484375 -20.296875 L 10.671875 -5.359375 L 15.859375 -20.296875 L 21.171875 -20.296875 Z M 13.1875 0 "/></g></g></g><g fill="#000000" fill-opacity="1"><g transform="translate(181.760959, 243.085897)"><g><path d="M 17.921875 -16.234375 L 7.1875 -16.234375 L 7.1875 -12.203125 L 16.875 -12.203125 L 16.875 -8.15625 L 7.1875 -8.15625 L 7.1875 -4.0625 L 18.234375 -4.0625 L 18.234375 0 L 2.03125 0 L 2.03125 -20.296875 L 17.921875 -20.296875 Z M 17.921875 -16.234375 "/></g></g></g><g fill="#000000" fill-opacity="1"><g transform="translate(203.331685, 243.085897)"><g><path d="M 14.265625 0 L 11.25 -5.71875 L 7.1875 -5.71875 L 7.1875 0 L 2.03125 0 L 2.03125 -20.296875 L 11.109375 -20.296875 C 13.796875 -20.296875 15.875 -19.679688 17.34375 -18.453125 C 18.8125 -17.222656 19.546875 -15.476562 19.546875 -13.21875 C 19.546875 -10.09375 18.316406 -7.921875 15.859375 -6.703125 L 20.125 0 Z M 7.1875 -9.765625 L 11.109375 -9.765625 C 12.222656 -9.765625 13.085938 -10.046875 13.703125 -10.609375 C 14.328125 -11.171875 14.640625 -11.984375 14.640625 -13.046875 C 14.640625 -14.085938 14.328125 -14.878906 13.703125 -15.421875 C 13.085938 -15.960938 12.222656 -16.234375 11.109375 -16.234375 L 7.1875 -16.234375 Z M 7.1875 -9.765625 "/></g></g></g><g fill="#000000" fill-opacity="1"><g transform="translate(226.352024, 243.085897)"><g><path d="M 17.546875 -16.15625 L 11.421875 -16.15625 L 11.421875 0 L 6.265625 0 L 6.265625 -16.15625 L 0.203125 -16.15625 L 0.203125 -20.328125 L 17.546875 -20.328125 Z M 17.546875 -16.15625 "/></g></g></g><g fill="#000000" fill-opacity="1"><g transform="translate(246.09624, 243.085897)"><g><path d="M 17.921875 -16.234375 L 7.1875 -16.234375 L 7.1875 -12.203125 L 16.875 -12.203125 L 16.875 -8.15625 L 7.1875 -8.15625 L 7.1875 -4.0625 L 18.234375 -4.0625 L 18.234375 0 L 2.03125 0 L 2.03125 -20.296875 L 17.921875 -20.296875 Z M 17.921875 -16.234375 "/></g></g></g><g fill="#000000" fill-opacity="1"><g transform="translate(267.666967, 243.085897)"><g><path d="M 14.265625 0 L 11.25 -5.71875 L 7.1875 -5.71875 L 7.1875 0 L 2.03125 0 L 2.03125 -20.296875 L 11.109375 -20.296875 C 13.796875 -20.296875 15.875 -19.679688 17.34375 -18.453125 C 18.8125 -17.222656 19.546875 -15.476562 19.546875 -13.21875 C 19.546875 -10.09375 18.316406 -7.921875 15.859375 -6.703125 L 20.125 0 Z M 7.1875 -9.765625 L 11.109375 -9.765625 C 12.222656 -9.765625 13.085938 -10.046875 13.703125 -10.609375 C 14.328125 -11.171875 14.640625 -11.984375 14.640625 -13.046875 C 14.640625 -14.085938 14.328125 -14.878906 13.703125 -15.421875 C 13.085938 -15.960938 12.222656 -16.234375 11.109375 -16.234375 L 7.1875 -16.234375 Z M 7.1875 -9.765625 "/></g></g></g></svg>